<svg width="72" height="72" viewBox="0 0 72 72" fill="none" xmlns="http://www.w3.org/2000/svg">
<path d="M36 59.066C48.7025 59.066 59 48.7538 59 36.033C59 23.3122 48.7025 13 36 13C23.2975 13 13 23.3122 13 36.033C13 48.7538 23.2975 59.066 36 59.066Z" fill="#FCEA2B"/>
<path d="M47.6533 44.1041C47.6533 47.5293 43.8439 50.252 36.2108 50.252C28.5758 50.252 24.7204 47.5207 24.7204 44.1041H24.8104C24.8104 44.1041 36.4446 47.0437 47.5037 44.1675L47.6576 44.1041H47.6533Z" fill="#EA5A47"/>
<path d="M42.7467 55.016C42.7467 55.7197 42.2119 56.2905 41.5526 56.2905C40.893 56.2905 40.3585 55.7202 40.3585 55.016V50.8058L43.4836 49.6321L46.1085 48.0677V59.0852C46.1085 59.9161 45.358 60.59 44.4324 60.59C43.5068 60.59 42.7563 59.9164 42.7563 59.0852V54.5717" fill="#92D3F5"/>
<path d="M21.186 27.2C21.9067 25.814 23.114 24.746 24.577 24.2C25.982 23.4998 27.597 23.3514 29.107 23.7791" stroke="black" stroke-width="2" stroke-miterlimit="10" stroke-linecap="round" stroke-linejoin="round"/>
<path d="M50.796 27.2C49.214 24.428 45.992 23.03 42.887 23.769" stroke="black" stroke-width="2" stroke-miterlimit="10" stroke-linecap="round" stroke-linejoin="round"/>
<path d="M50.236 54.07C55.574 49.858 59 43.33 59 36C59 23.3 48.7 13 36 13C23.3 13 13 23.3 13 36C13 48.7 23.3 59 36 59C36.3675 59 36.7329 58.9914 37.096 58.9743" stroke="black" stroke-width="2" stroke-miterlimit="10" stroke-linecap="round" stroke-linejoin="round"/>
<path d="M25.066 34.8C25.687 34.1024 26.472 33.386 27.518 33.027C28.577 32.6632 29.634 32.6632 30.793 32.7782" stroke="black" stroke-width="2" stroke-miterlimit="10" stroke-linecap="round" stroke-linejoin="round"/>
<path d="M46.946 34.8C46.325 34.1024 45.54 33.386 44.494 33.027C43.435 32.6632 42.378 32.6632 41.219 32.7782" stroke="black" stroke-width="2" stroke-miterlimit="10" stroke-linecap="round" stroke-linejoin="round"/>
<path d="M47.886 44.69C47.886 48.259 43.911 51.096 35.946 51.096C27.979 51.096 23.956 48.25 23.956 44.69H24.0499C24.0499 44.69 36.1899 47.753 47.7299 44.756L47.886 44.69Z" stroke="black" stroke-width="2" stroke-miterlimit="10" stroke-linecap="round" stroke-linejoin="round"/>
<path d="M46.354 48.32V59.8C46.354 60.6658 45.5708 61.368 44.605 61.368C43.6389 61.368 42.856 60.6661 42.856 59.8V55.097M42.846 55.56C42.846 56.2932 42.288 56.888 41.6 56.888C40.9117 56.888 40.354 56.2937 40.354 55.56V51.173L42.846 55.56Z" stroke="black" stroke-width="2" stroke-miterlimit="10" stroke-linecap="round" stroke-linejoin="round"/>
</svg>
